<?xml version="1.0" standalone="no"?>
<!DOCTYPE svg PUBLIC "-//W3C//DTD SVG 20010904//EN"
 "http://www.w3.org/TR/2001/REC-SVG-20010904/DTD/svg10.dtd">
<svg version="1.0" xmlns="http://www.w3.org/2000/svg"
 width="735.000000pt" height="735.000000pt" viewBox="0 0 735.000000 735.000000"
 preserveAspectRatio="xMidYMid meet">

<g transform="translate(0.000000,735.000000) scale(0.100000,-0.100000)"
fill="#000000" stroke="none">
<path d="M3510 6454 c-1193 -70 -2222 -912 -2525 -2066 -225 -858 -35 -1759
515 -2448 109 -136 328 -353 461 -457 280 -218 610 -387 940 -482 126 -36 318
-75 454 -92 148 -19 523 -16 674 5 629 85 1171 354 1616 801 435 437 694 955
786 1570 18 122 23 193 23 385 0 306 -28 515 -104 778 -286 990 -1131 1765
-2133 1957 -202 39 -512 60 -707 49z m580 -183 c391 -67 730 -200 1045 -412
386 -259 682 -596 889 -1009 149 -297 233 -588 266 -914 20 -189 8 -517 -24
-701 -79 -454 -256 -847 -544 -1210 -78 -99 -321 -339 -422 -417 -404 -313
-840 -489 -1359 -548 -136 -16 -520 -7 -655 14 -395 64 -743 200 -1068 415
-383 255 -695 611 -897 1024 -98 198 -141 315 -191 511 -64 255 -75 352 -74
666 1 250 3 288 27 420 81 453 261 856 535 1200 92 115 308 333 417 420 373
297 843 494 1325 556 162 20 569 12 730 -15z"/>
<path d="M3646 5051 c-28 -30 -37 -92 -26 -168 12 -86 42 -186 55 -184 27 4
72 220 59 288 -7 39 -38 83 -59 83 -7 0 -20 -9 -29 -19z"/>
<path d="M3145 4953 c-36 -35 10 -163 100 -275 66 -84 70 -81 53 55 -20 172
-95 279 -153 220z"/>
<path d="M4176 4939 c-35 -27 -63 -84 -80 -161 -17 -76 -25 -168 -15 -168 17
0 99 104 134 171 44 83 51 142 20 165 -25 18 -27 18 -59 -7z"/>
<path d="M2692 4658 c-30 -30 -4 -88 70 -152 53 -46 185 -122 195 -113 13 13
-76 157 -133 215 -64 64 -103 79 -132 50z"/>
<path d="M4574 4651 c-16 -10 -49 -40 -72 -67 -43 -51 -118 -181 -109 -191 3
-3 38 12 78 33 84 44 185 136 195 178 14 58 -35 83 -92 47z"/>
<path d="M2418 4250 c-11 -7 -18 -23 -18 -40 0 -38 42 -73 122 -99 69 -23 207
-45 217 -35 11 11 -100 102 -168 138 -74 39 -128 51 -153 36z"/>
<path d="M4842 4201 c-78 -27 -237 -139 -221 -156 9 -8 178 15 226 31 108 36
150 88 103 126 -27 22 -41 22 -108 -1z"/>
<path d="M2356 3729 c-66 -11 -92 -66 -45 -95 44 -27 181 -21 284 12 66 22 74
31 39 44 -88 34 -209 51 -278 39z"/>
<path d="M4905 3733 c-55 -6 -139 -25 -179 -41 l-38 -15 24 -13 c56 -30 182
-50 276 -46 45 3 87 44 72 72 -6 11 -18 24 -28 28 -22 12 -88 20 -127 15z"/>
<path d="M2633 3299 c-187 -18 -312 -107 -221 -158 24 -14 32 -13 82 2 55 18
185 98 219 135 24 26 10 30 -80 21z"/>
<path d="M4610 3269 c0 -16 108 -100 170 -133 89 -47 132 -54 159 -27 27 27
26 33 -4 70 -27 31 -104 65 -184 81 -68 13 -141 18 -141 9z"/>
<path d="M2876 2923 c-38 -21 -95 -62 -127 -93 -83 -79 -92 -141 -20 -148 27
-3 40 5 94 60 37 38 78 92 100 134 20 40 37 75 37 78 0 11 -15 6 -84 -31z"/>
<path d="M4390 2954 c0 -3 17 -38 37 -76 78 -148 212 -245 239 -173 20 50 -73
155 -194 218 -71 38 -82 42 -82 31z"/>
<path d="M3216 2688 c-100 -115 -148 -260 -95 -289 46 -24 108 57 133 176 22
106 29 165 17 165 -5 0 -30 -24 -55 -52z"/>
<path d="M4050 2669 c0 -129 53 -272 105 -285 58 -14 77 28 51 111 -17 56 -98
187 -134 219 l-22 19 0 -64z"/>
<path d="M3662 2636 c-24 -53 -45 -154 -46 -223 0 -59 3 -77 20 -100 27 -36
47 -39 72 -13 39 42 37 162 -5 295 -20 64 -27 71 -41 41z"/>
</g>
</svg>
